
<!-- Generated by graphviz version 2.40.1 (20161225.0304)
 -->
<!-- Title: Argument Map Pages: 1 -->
<svg width="720pt" height="241pt"
 viewBox="0.00 0.00 720.00 241.43" xmlns="http://www.w3.org/2000/svg" xmlns:xlink="http://www.w3.org/1999/xlink">
<g id="graph0" class="graph" transform="scale(.3064 .3064) rotate(0) translate(4 784)">
<title>Argument Map</title>
<!-- n0 -->
<g id="node1" class="node">
<title>n0</title>
<path fill="#ffffff" stroke="#1b9e77" stroke-width="2" d="M1409,-780C1409,-780 1237,-780 1237,-780 1231,-780 1225,-774 1225,-768 1225,-768 1225,-740 1225,-740 1225,-734 1231,-728 1237,-728 1237,-728 1409,-728 1409,-728 1415,-728 1421,-734 1421,-740 1421,-740 1421,-768 1421,-768 1421,-774 1415,-780 1409,-780"/>
<text text-anchor="start" x="1266.8865" y="-766" font-family="arial" font-weight="bold" font-size="10.00" fill="#000000">Abortion is morally wrong</text>
<text text-anchor="start" x="1255.216" y="-749" font-family="arial" font-size="10.00" fill="#000000">It is wrong in principle to kill an</text>
<text text-anchor="start" x="1275.7595" y="-737" font-family="arial" font-size="10.00" fill="#000000"> unborn human being</text>
</g>
<!-- n1 -->
<g id="node2" class="node">
<title>n1</title>
<path fill="#ffffff" stroke="#1b9e77" stroke-width="2" d="M1056,-598C1056,-598 884,-598 884,-598 878,-598 872,-592 872,-586 872,-586 872,-522 872,-522 872,-516 878,-510 884,-510 884,-510 1056,-510 1056,-510 1062,-510 1068,-516 1068,-522 1068,-522 1068,-586 1068,-586 1068,-592 1062,-598 1056,-598"/>
<text text-anchor="start" x="890.537" y="-584" font-family="arial" font-weight="bold" font-size="10.00" fill="#000000">It is wrong to kill an innocent person</text>
<text text-anchor="start" x="888.0505" y="-567" font-family="arial" font-size="10.00" fill="#000000">Note that &#39;person&#39; is sometimes used</text>
<text text-anchor="start" x="883.588" y="-555" font-family="arial" font-size="10.00" fill="#000000"> with other meanings in philosophy, but</text>
<text text-anchor="start" x="893.8655" y="-543" font-family="arial" font-size="10.00" fill="#000000"> for the context of this topic means</text>
<text text-anchor="start" x="883.858" y="-531" font-family="arial" font-size="10.00" fill="#000000"> person in the way that an adult human</text>
<text text-anchor="start" x="893.5965" y="-519" font-family="arial" font-size="10.00" fill="#000000"> is a person while an animal is not.</text>
</g>
<!-- n22 -->
<g id="node23" class="node">
<title>n22</title>
<path fill="#1b9e77" stroke="#000000" d="M1347.5,-684C1347.5,-684 1168.5,-684 1168.5,-684 1162.5,-684 1156.5,-678 1156.5,-672 1156.5,-672 1156.5,-660 1156.5,-660 1156.5,-654 1162.5,-648 1168.5,-648 1168.5,-648 1347.5,-648 1347.5,-648 1353.5,-648 1359.5,-654 1359.5,-660 1359.5,-660 1359.5,-672 1359.5,-672 1359.5,-678 1353.5,-684 1347.5,-684"/>
<text text-anchor="start" x="1166.5275" y="-664" font-family="arial" font-weight="bold" font-size="10.00" fill="#000000">Argument from personhood at conception</text>
</g>
<!-- n1&#45;&gt;n22 -->
<g id="edge33" class="edge">
<title>n1&#45;&gt;n22</title>
<path fill="none" stroke="#00ff00" d="M1068.3078,-592.2308C1112.9235,-609.5814 1164.0677,-629.4708 1201.9994,-644.222"/>
<polygon fill="#00ff00" stroke="#00ff00" points="1200.7577,-647.4944 1211.3464,-647.8569 1203.2949,-640.9704 1200.7577,-647.4944"/>
</g>
<!-- n26 -->
<g id="node27" class="node">
<title>n26</title>
<path fill="#1b9e77" stroke="#000000" d="M1056,-692C1056,-692 884,-692 884,-692 878,-692 872,-686 872,-680 872,-680 872,-652 872,-652 872,-646 878,-640 884,-640 884,-640 1056,-640 1056,-640 1062,-640 1068,-646 1068,-652 1068,-652 1068,-680 1068,-680 1068,-686 1062,-692 1056,-692"/>
<text text-anchor="start" x="923.873" y="-678" font-family="arial" font-weight="bold" font-size="10.00" fill="#000000">Substance argument</text>
<text text-anchor="start" x="889.145" y="-661" font-family="arial" font-size="10.00" fill="#000000">Also known as the natural capacities</text>
<text text-anchor="start" x="958.612" y="-649" font-family="arial" font-size="10.00" fill="#000000"> view</text>
</g>
<!-- n1&#45;&gt;n26 -->
<g id="edge34" class="edge">
<title>n1&#45;&gt;n26</title>
<path fill="none" stroke="#00ff00" d="M970,-598.2654C970,-608.7029 970,-619.7099 970,-629.7464"/>
<polygon fill="#00ff00" stroke="#00ff00" points="966.5001,-629.7896 970,-639.7896 973.5001,-629.7896 966.5001,-629.7896"/>
</g>
<!-- n2 -->
<g id="node3" class="node">
<title>n2</title>
<path fill="#ffffff" stroke="#1b9e77" stroke-width="2" d="M1707,-162C1707,-162 1535,-162 1535,-162 1529,-162 1523,-156 1523,-150 1523,-150 1523,-114 1523,-114 1523,-108 1529,-102 1535,-102 1535,-102 1707,-102 1707,-102 1713,-102 1719,-108 1719,-114 1719,-114 1719,-150 1719,-150 1719,-156 1713,-162 1707,-162"/>
<text text-anchor="start" x="1545.7125" y="-148" font-family="arial" font-weight="bold" font-size="10.00" fill="#000000">There are criteria to determine if a</text>
<text text-anchor="start" x="1581.543" y="-138" font-family="arial" font-weight="bold" font-size="10.00" fill="#000000"> being is a person</text>
<text text-anchor="start" x="1538.7485" y="-123" font-family="arial" font-size="10.00" fill="#000000">The criteria are open to debate, but a</text>
<text text-anchor="start" x="1576.544" y="-111" font-family="arial" font-size="10.00" fill="#000000"> popular set is given</text>
</g>
<!-- n23 -->
<g id="node24" class="node">
<title>n23</title>
<path fill="#1b9e77" stroke="#000000" d="M1474,-448C1474,-448 1302,-448 1302,-448 1296,-448 1290,-442 1290,-436 1290,-436 1290,-424 1290,-424 1290,-418 1296,-412 1302,-412 1302,-412 1474,-412 1474,-412 1480,-412 1486,-418 1486,-424 1486,-424 1486,-436 1486,-436 1486,-442 1480,-448 1474,-448"/>
<text text-anchor="start" x="1303.5425" y="-428" font-family="arial" font-weight="bold" font-size="10.00" fill="#000000">Argument from criteria for personhood</text>
</g>
<!-- n2&#45;&gt;n23 -->
<g id="edge35" class="edge">
<title>n2&#45;&gt;n23</title>
<path fill="none" stroke="#00ff00" d="M1569.9193,-162.3123C1556.1495,-172.6951 1542.4635,-185.4262 1533,-200 1494.1364,-259.8495 1535.4308,-297.1978 1495,-356 1480.2759,-377.4146 1457.1719,-394.5283 1436.1953,-406.8812"/>
<polygon fill="#00ff00" stroke="#00ff00" points="1434.3422,-403.9083 1427.3663,-411.8825 1437.7924,-409.999 1434.3422,-403.9083"/>
</g>
<!-- n25 -->
<g id="node26" class="node">
<title>n25</title>
<path fill="#1b9e77" stroke="#000000" d="M1726,-296C1726,-296 1554,-296 1554,-296 1548,-296 1542,-290 1542,-284 1542,-284 1542,-272 1542,-272 1542,-266 1548,-260 1554,-260 1554,-260 1726,-260 1726,-260 1732,-260 1738,-266 1738,-272 1738,-272 1738,-284 1738,-284 1738,-290 1732,-296 1726,-296"/>
<text text-anchor="start" x="1595.8195" y="-276" font-family="arial" font-weight="bold" font-size="10.00" fill="#000000">Infanticide objection</text>
</g>
<!-- n2&#45;&gt;n25 -->
<g id="edge36" class="edge">
<title>n2&#45;&gt;n25</title>
<path fill="none" stroke="#00ff00" d="M1624.9368,-162.2513C1628.2846,-187.9767 1633.0556,-224.6381 1636.3261,-249.7686"/>
<polygon fill="#00ff00" stroke="#00ff00" points="1632.866,-250.3027 1637.6273,-259.7674 1639.8074,-249.3993 1632.866,-250.3027"/>
</g>
<!-- n3 -->
<g id="node4" class="node">
<title>n3</title>
<path fill="#ffffff" stroke="#1b9e77" stroke-width="2" d="M1346.5,-572C1346.5,-572 1173.5,-572 1173.5,-572 1167.5,-572 1161.5,-566 1161.5,-560 1161.5,-560 1161.5,-548 1161.5,-548 1161.5,-542 1167.5,-536 1173.5,-536 1173.5,-536 1346.5,-536 1346.5,-536 1352.5,-536 1358.5,-542 1358.5,-548 1358.5,-548 1358.5,-560 1358.5,-560 1358.5,-566 1352.5,-572 1346.5,-572"/>
<text text-anchor="start" x="1171.857" y="-552" font-family="arial" font-weight="bold" font-size="10.00" fill="#000000">An unborn human is an innocent person</text>
</g>
<!-- n3&#45;&gt;n22 -->
<g id="edge37" class="edge">
<title>n3&#45;&gt;n22</title>
<path fill="none" stroke="#00ff00" d="M1259.6697,-572.4945C1259.3523,-590.2718 1258.8682,-617.3816 1258.5028,-637.8413"/>
<polygon fill="#00ff00" stroke="#00ff00" points="1255.0033,-637.7887 1258.3241,-647.8496 1262.0022,-637.9137 1255.0033,-637.7887"/>
</g>
<!-- n4 -->
<g id="node5" class="node">
<title>n4</title>
<path fill="#ffffff" stroke="#1b9e77" stroke-width="2" d="M1474,-296C1474,-296 1302,-296 1302,-296 1296,-296 1290,-290 1290,-284 1290,-284 1290,-272 1290,-272 1290,-266 1296,-260 1302,-260 1302,-260 1474,-260 1474,-260 1480,-260 1486,-266 1486,-272 1486,-272 1486,-284 1486,-284 1486,-290 1480,-296 1474,-296"/>
<text text-anchor="start" x="1306.856" y="-280" font-family="arial" font-weight="bold" font-size="10.00" fill="#000000">An unborn human does not meet the</text>
<text text-anchor="start" x="1338.266" y="-270" font-family="arial" font-weight="bold" font-size="10.00" fill="#000000"> criteria to be a person</text>
</g>
<!-- n4&#45;&gt;n23 -->
<g id="edge38" class="edge">
<title>n4&#45;&gt;n23</title>
<path fill="none" stroke="#00ff00" d="M1388,-296.0333C1388,-322.2017 1388,-370.9439 1388,-401.8632"/>
<polygon fill="#00ff00" stroke="#00ff00" points="1384.5001,-401.9901 1388,-411.9902 1391.5001,-401.9902 1384.5001,-401.9901"/>
</g>
<!-- n5 -->
<g id="node6" class="node">
<title>n5</title>
<path fill="#ffffff" stroke="#1b9e77" stroke-width="2" d="M509,-604C509,-604 337,-604 337,-604 331,-604 325,-598 325,-592 325,-592 325,-516 325,-516 325,-510 331,-504 337,-504 337,-504 509,-504 509,-504 515,-504 521,-510 521,-516 521,-516 521,-592 521,-592 521,-598 515,-604 509,-604"/>
<text text-anchor="start" x="354.6525" y="-590" font-family="arial" font-weight="bold" font-size="10.00" fill="#000000">Humans are essentially people</text>
<text text-anchor="start" x="347.151" y="-573" font-family="arial" font-size="10.00" fill="#000000">All biological humans are a kind of</text>
<text text-anchor="start" x="355.202" y="-561" font-family="arial" font-size="10.00" fill="#000000"> substance which is capable of</text>
<text text-anchor="start" x="340.471" y="-549" font-family="arial" font-size="10.00" fill="#000000"> personhood as part of their essence.</text>
<text text-anchor="start" x="342.976" y="-537" font-family="arial" font-size="10.00" fill="#000000"> Note that the terms `substance` and</text>
<text text-anchor="start" x="340.2045" y="-525" font-family="arial" font-size="10.00" fill="#000000"> `essence` have specific philosophical</text>
<text text-anchor="start" x="360.7615" y="-513" font-family="arial" font-size="10.00" fill="#000000"> and metaphysical meaning.</text>
</g>
<!-- n5&#45;&gt;n26 -->
<g id="edge39" class="edge">
<title>n5&#45;&gt;n26</title>
<path fill="none" stroke="#00ff00" d="M521.1083,-574.088C616.9667,-593.7153 762.5439,-623.5227 861.737,-643.8328"/>
<polygon fill="#00ff00" stroke="#00ff00" points="861.2901,-647.3138 871.7889,-645.891 862.6943,-640.4561 861.2901,-647.3138"/>
</g>
<!-- n6 -->
<g id="node7" class="node">
<title>n6</title>
<path fill="#ffffff" stroke="#1b9e77" stroke-width="2" d="M188,-466C188,-466 16,-466 16,-466 10,-466 4,-460 4,-454 4,-454 4,-406 4,-406 4,-400 10,-394 16,-394 16,-394 188,-394 188,-394 194,-394 200,-400 200,-406 200,-406 200,-454 200,-454 200,-460 194,-466 188,-466"/>
<text text-anchor="start" x="20.042" y="-451" font-family="arial" font-size="10.00" fill="#000000">Consider a future where it is possible</text>
<text text-anchor="start" x="20.0415" y="-439" font-family="arial" font-size="10.00" fill="#000000"> to move someone&#39;s mind out of their</text>
<text text-anchor="start" x="22.2475" y="-427" font-family="arial" font-size="10.00" fill="#000000"> natural body and into a robotic one.</text>
<text text-anchor="start" x="26.712" y="-415" font-family="arial" font-size="10.00" fill="#000000"> Would killing the natural body still</text>
<text text-anchor="start" x="24.7555" y="-403" font-family="arial" font-size="10.00" fill="#000000"> be the same as killing the person?</text>
</g>
<!-- n6&#45;&gt;n5 -->
<g id="edge6" class="edge">
<title>n6&#45;&gt;n5</title>
<path fill="none" stroke="#ff0000" d="M195.2777,-466.0325C232.7349,-480.502 276.1542,-497.2745 314.9722,-512.2696"/>
<polygon fill="#ff0000" stroke="#ff0000" points="314.1462,-515.7026 324.7356,-516.0412 316.6686,-509.1728 314.1462,-515.7026"/>
</g>
<!-- n7 -->
<g id="node8" class="node">
<title>n7</title>
<path fill="#ffffff" stroke="#1b9e77" stroke-width="2" d="M402,-448C402,-448 230,-448 230,-448 224,-448 218,-442 218,-436 218,-436 218,-424 218,-424 218,-418 224,-412 230,-412 230,-412 402,-412 402,-412 408,-412 414,-418 414,-424 414,-424 414,-436 414,-436 414,-442 408,-448 402,-448"/>
<text text-anchor="start" x="244.3135" y="-433" font-family="arial" font-size="10.00" fill="#000000">It is speciesist to use genetics to</text>
<text text-anchor="start" x="272.093" y="-421" font-family="arial" font-size="10.00" fill="#000000"> decide personhood</text>
</g>
<!-- n7&#45;&gt;n5 -->
<g id="edge8" class="edge">
<title>n7&#45;&gt;n5</title>
<path fill="none" stroke="#ff0000" d="M331.5587,-448.0307C342.5161,-460.729 357.8483,-478.4971 372.8308,-495.8599"/>
<polygon fill="#ff0000" stroke="#ff0000" points="370.4901,-498.5049 379.673,-503.7893 375.7898,-493.9317 370.4901,-498.5049"/>
</g>
<!-- n8 -->
<g id="node9" class="node">
<title>n8</title>
<path fill="#ffffff" stroke="#1b9e77" stroke-width="2" d="M186,-308C186,-308 12,-308 12,-308 6,-308 0,-302 0,-296 0,-296 0,-260 0,-260 0,-254 6,-248 12,-248 12,-248 186,-248 186,-248 192,-248 198,-254 198,-260 198,-260 198,-296 198,-296 198,-302 192,-308 186,-308"/>
<text text-anchor="start" x="9.8175" y="-293" font-family="arial" font-size="10.00" fill="#000000">Determining that humans are essentially</text>
<text text-anchor="start" x="14.522" y="-281" font-family="arial" font-size="10.00" fill="#000000"> people does not prevent other groups</text>
<text text-anchor="start" x="15.919" y="-269" font-family="arial" font-size="10.00" fill="#000000"> from being identified as people in the</text>
<text text-anchor="start" x="84.8285" y="-257" font-family="arial" font-size="10.00" fill="#000000"> future</text>
</g>
<!-- n8&#45;&gt;n7 -->
<g id="edge7" class="edge">
<title>n8&#45;&gt;n7</title>
<path fill="none" stroke="#ff0000" d="M140.0832,-308.0989C160.1619,-322.6995 184.7399,-340.4103 207,-356 231.3701,-373.0673 259.1164,-391.8958 280.516,-406.2892"/>
<polygon fill="#ff0000" stroke="#ff0000" points="278.7213,-409.3 288.9743,-411.9697 282.624,-403.4888 278.7213,-409.3"/>
</g>
<!-- n9 -->
<g id="node10" class="node">
<title>n9</title>
<path fill="#ffffff" stroke="#1b9e77" stroke-width="2" d="M616,-454C616,-454 444,-454 444,-454 438,-454 432,-448 432,-442 432,-442 432,-418 432,-418 432,-412 438,-406 444,-406 444,-406 616,-406 616,-406 622,-406 628,-412 628,-418 628,-418 628,-442 628,-442 628,-448 622,-454 616,-454"/>
<text text-anchor="start" x="451.652" y="-439" font-family="arial" font-size="10.00" fill="#000000">In this case it would be wrong to kill</text>
<text text-anchor="start" x="456.9165" y="-427" font-family="arial" font-size="10.00" fill="#000000"> brain dead people or people in a</text>
<text text-anchor="start" x="464.7025" y="-415" font-family="arial" font-size="10.00" fill="#000000"> permanently vegetative state</text>
</g>
<!-- n9&#45;&gt;n5 -->
<g id="edge9" class="edge">
<title>n9&#45;&gt;n5</title>
<path fill="none" stroke="#ff0000" d="M509.1153,-454.2028C498.7054,-466.2666 485.6314,-481.4178 472.838,-496.2438"/>
<polygon fill="#ff0000" stroke="#ff0000" points="470.0723,-494.0915 466.1891,-503.9491 475.372,-498.6647 470.0723,-494.0915"/>
</g>
<!-- n10 -->
<g id="node11" class="node">
<title>n10</title>
<path fill="#ffffff" stroke="#1b9e77" stroke-width="2" d="M1688,-590C1688,-590 1516,-590 1516,-590 1510,-590 1504,-584 1504,-578 1504,-578 1504,-530 1504,-530 1504,-524 1510,-518 1516,-518 1516,-518 1688,-518 1688,-518 1694,-518 1700,-524 1700,-530 1700,-530 1700,-578 1700,-578 1700,-584 1694,-590 1688,-590"/>
<text text-anchor="start" x="1517.541" y="-576" font-family="arial" font-weight="bold" font-size="10.00" fill="#000000">Murder is wrong because it deprives a</text>
<text text-anchor="start" x="1541.423" y="-566" font-family="arial" font-weight="bold" font-size="10.00" fill="#000000"> person of a valuable future</text>
<text text-anchor="start" x="1526.982" y="-551" font-family="arial" font-size="10.00" fill="#000000">It is wrong to kill an innocent adult</text>
<text text-anchor="start" x="1518.641" y="-539" font-family="arial" font-size="10.00" fill="#000000"> human because it deprives them of a</text>
<text text-anchor="start" x="1567.8225" y="-527" font-family="arial" font-size="10.00" fill="#000000"> valuable future</text>
</g>
<!-- n28 -->
<g id="node29" class="node">
<title>n28</title>
<path fill="#1b9e77" stroke="#000000" d="M1795,-692C1795,-692 1623,-692 1623,-692 1617,-692 1611,-686 1611,-680 1611,-680 1611,-652 1611,-652 1611,-646 1617,-640 1623,-640 1623,-640 1795,-640 1795,-640 1801,-640 1807,-646 1807,-652 1807,-652 1807,-680 1807,-680 1807,-686 1801,-692 1795,-692"/>
<text text-anchor="start" x="1661.2145" y="-678" font-family="arial" font-weight="bold" font-size="10.00" fill="#000000">Deprivation argument</text>
<text text-anchor="start" x="1624.877" y="-661" font-family="arial" font-size="10.00" fill="#000000">Also known as the &quot;future like ours&quot; or</text>
<text text-anchor="start" x="1648.768" y="-649" font-family="arial" font-size="10.00" fill="#000000"> &quot;valuable future&quot; argument</text>
</g>
<!-- n10&#45;&gt;n28 -->
<g id="edge40" class="edge">
<title>n10&#45;&gt;n28</title>
<path fill="none" stroke="#00ff00" d="M1636.4444,-590.054C1649.4162,-603.6319 1664.1071,-619.0093 1676.8604,-632.3586"/>
<polygon fill="#00ff00" stroke="#00ff00" points="1674.6793,-635.1422 1684.1178,-639.9551 1679.7407,-630.3067 1674.6793,-635.1422"/>
</g>
<!-- n11 -->
<g id="node12" class="node">
<title>n11</title>
<path fill="#ffffff" stroke="#1b9e77" stroke-width="2" d="M2116,-460C2116,-460 1944,-460 1944,-460 1938,-460 1932,-454 1932,-448 1932,-448 1932,-412 1932,-412 1932,-406 1938,-400 1944,-400 1944,-400 2116,-400 2116,-400 2122,-400 2128,-406 2128,-412 2128,-412 2128,-448 2128,-448 2128,-454 2122,-460 2116,-460"/>
<text text-anchor="start" x="1949.421" y="-445" font-family="arial" font-size="10.00" fill="#000000">The human entity which has a future</text>
<text text-anchor="start" x="1953.316" y="-433" font-family="arial" font-size="10.00" fill="#000000"> like ours is a new entity created at</text>
<text text-anchor="start" x="1953.311" y="-421" font-family="arial" font-size="10.00" fill="#000000"> conception, which is different than</text>
<text text-anchor="start" x="1977.211" y="-409" font-family="arial" font-size="10.00" fill="#000000"> either the sperm or ova</text>
</g>
<!-- n30 -->
<g id="node31" class="node">
<title>n30</title>
<path fill="#1b9e77" stroke="#000000" d="M2116,-586C2116,-586 1944,-586 1944,-586 1938,-586 1932,-580 1932,-574 1932,-574 1932,-534 1932,-534 1932,-528 1938,-522 1944,-522 1944,-522 2116,-522 2116,-522 2122,-522 2128,-528 2128,-534 2128,-534 2128,-574 2128,-574 2128,-580 2122,-586 2116,-586"/>
<text text-anchor="start" x="1977.4855" y="-572" font-family="arial" font-weight="bold" font-size="10.00" fill="#000000">Contraception objection</text>
<text text-anchor="start" x="1941.6425" y="-555" font-family="arial" font-size="10.00" fill="#000000">Contraception must then also be wrong,</text>
<text text-anchor="start" x="1950.8095" y="-543" font-family="arial" font-size="10.00" fill="#000000"> as sperm and ova then must also a</text>
<text text-anchor="start" x="1995.8275" y="-531" font-family="arial" font-size="10.00" fill="#000000"> future like ours</text>
</g>
<!-- n11&#45;&gt;n30 -->
<g id="edge12" class="edge">
<title>n11&#45;&gt;n30</title>
<path fill="none" stroke="#ff0000" d="M2030,-460.0169C2030,-475.4497 2030,-494.5232 2030,-511.446"/>
<polygon fill="#ff0000" stroke="#ff0000" points="2026.5001,-511.6532 2030,-521.6532 2033.5001,-511.6532 2026.5001,-511.6532"/>
</g>
<!-- n12 -->
<g id="node13" class="node">
<title>n12</title>
<path fill="#ffffff" stroke="#1b9e77" stroke-width="2" d="M1940,-302C1940,-302 1768,-302 1768,-302 1762,-302 1756,-296 1756,-290 1756,-290 1756,-266 1756,-266 1756,-260 1762,-254 1768,-254 1768,-254 1940,-254 1940,-254 1946,-254 1952,-260 1952,-266 1952,-266 1952,-290 1952,-290 1952,-296 1946,-302 1940,-302"/>
<text text-anchor="start" x="1784.5335" y="-287" font-family="arial" font-size="10.00" fill="#000000">A suicidal teenager also has no</text>
<text text-anchor="start" x="1787.042" y="-275" font-family="arial" font-size="10.00" fill="#000000"> interest in their future, but it is</text>
<text text-anchor="start" x="1805.1115" y="-263" font-family="arial" font-size="10.00" fill="#000000"> still wrong to kill them</text>
</g>
<!-- n31 -->
<g id="node32" class="node">
<title>n31</title>
<path fill="#1b9e77" stroke="#000000" d="M1902,-462C1902,-462 1730,-462 1730,-462 1724,-462 1718,-456 1718,-450 1718,-450 1718,-410 1718,-410 1718,-404 1724,-398 1730,-398 1730,-398 1902,-398 1902,-398 1908,-398 1914,-404 1914,-410 1914,-410 1914,-450 1914,-450 1914,-456 1908,-462 1902,-462"/>
<text text-anchor="start" x="1777.933" y="-448" font-family="arial" font-weight="bold" font-size="10.00" fill="#000000">Interest objection</text>
<text text-anchor="start" x="1744.87" y="-431" font-family="arial" font-size="10.00" fill="#000000">A being must be interested in its</text>
<text text-anchor="start" x="1733.478" y="-419" font-family="arial" font-size="10.00" fill="#000000"> future in order for harm to be caused</text>
<text text-anchor="start" x="1777.6575" y="-407" font-family="arial" font-size="10.00" fill="#000000"> by taking it away</text>
</g>
<!-- n12&#45;&gt;n31 -->
<g id="edge14" class="edge">
<title>n12&#45;&gt;n31</title>
<path fill="none" stroke="#ff0000" d="M1847.9788,-302.0849C1842.2194,-325.1223 1833.4124,-360.3505 1826.4979,-388.0085"/>
<polygon fill="#ff0000" stroke="#ff0000" points="1823.0751,-387.2688 1824.0452,-397.8192 1829.8661,-388.9666 1823.0751,-387.2688"/>
</g>
<!-- n13 -->
<g id="node14" class="node">
<title>n13</title>
<path fill="#ffffff" stroke="#1b9e77" stroke-width="2" d="M400,-296C400,-296 228,-296 228,-296 222,-296 216,-290 216,-284 216,-284 216,-272 216,-272 216,-266 222,-260 228,-260 228,-260 400,-260 400,-260 406,-260 412,-266 412,-272 412,-272 412,-284 412,-284 412,-290 406,-296 400,-296"/>
<text text-anchor="start" x="230.641" y="-281" font-family="arial" font-size="10.00" fill="#000000">This analogy only holds in the case of</text>
<text text-anchor="start" x="302.6075" y="-269" font-family="arial" font-size="10.00" fill="#000000"> rape</text>
</g>
<!-- n33 -->
<g id="node34" class="node">
<title>n33</title>
<path fill="#1b9e77" stroke="#000000" d="M1046,-448C1046,-448 874,-448 874,-448 868,-448 862,-442 862,-436 862,-436 862,-424 862,-424 862,-418 868,-412 874,-412 874,-412 1046,-412 1046,-412 1052,-412 1058,-418 1058,-424 1058,-424 1058,-436 1058,-436 1058,-442 1052,-448 1046,-448"/>
<text text-anchor="start" x="936.1055" y="-428" font-family="arial" font-weight="bold" font-size="10.00" fill="#000000">Untitled 24</text>
</g>
<!-- n13&#45;&gt;n33 -->
<g id="edge19" class="edge">
<title>n13&#45;&gt;n33</title>
<path fill="none" stroke="#ff0000" d="M332.7141,-296.1948C352.7861,-314.54 386.4597,-342.0769 421,-356 440.7366,-363.9558 699.8486,-397.3888 851.4942,-416.4817"/>
<polygon fill="#ff0000" stroke="#ff0000" points="851.4143,-419.9991 861.7729,-417.7746 852.2879,-413.0538 851.4143,-419.9991"/>
</g>
<!-- n14 -->
<g id="node15" class="node">
<title>n14</title>
<path fill="#ffffff" stroke="#1b9e77" stroke-width="2" d="M407,-56C407,-56 221,-56 221,-56 215,-56 209,-50 209,-44 209,-44 209,-20 209,-20 209,-14 215,-8 221,-8 221,-8 407,-8 407,-8 413,-8 419,-14 419,-20 419,-20 419,-44 419,-44 419,-50 413,-56 407,-56"/>
<text text-anchor="start" x="218.6935" y="-41" font-family="arial" font-size="10.00" fill="#000000">Women who are not provided education on</text>
<text text-anchor="start" x="238.424" y="-29" font-family="arial" font-size="10.00" fill="#000000"> sex and contraception don&#39;t know</text>
<text text-anchor="start" x="245.9125" y="-17" font-family="arial" font-size="10.00" fill="#000000"> enough to have given consent</text>
</g>
<!-- n34 -->
<g id="node35" class="node">
<title>n34</title>
<path fill="#1b9e77" stroke="#000000" d="M401.5,-164C401.5,-164 226.5,-164 226.5,-164 220.5,-164 214.5,-158 214.5,-152 214.5,-152 214.5,-112 214.5,-112 214.5,-106 220.5,-100 226.5,-100 226.5,-100 401.5,-100 401.5,-100 407.5,-100 413.5,-106 413.5,-112 413.5,-112 413.5,-152 413.5,-152 413.5,-158 407.5,-164 401.5,-164"/>
<text text-anchor="start" x="263.3745" y="-150" font-family="arial" font-weight="bold" font-size="10.00" fill="#000000">Tacit consent objection</text>
<text text-anchor="start" x="224.747" y="-133" font-family="arial" font-size="10.00" fill="#000000">If the woman had voluntary sex then she</text>
<text text-anchor="start" x="240.0305" y="-121" font-family="arial" font-size="10.00" fill="#000000"> gave tacit consent for the child to</text>
<text text-anchor="start" x="284.2105" y="-109" font-family="arial" font-size="10.00" fill="#000000"> use her body</text>
</g>
<!-- n14&#45;&gt;n34 -->
<g id="edge16" class="edge">
<title>n14&#45;&gt;n34</title>
<path fill="none" stroke="#ff0000" d="M314,-56.2072C314,-66.209 314,-78.1069 314,-89.4771"/>
<polygon fill="#ff0000" stroke="#ff0000" points="310.5001,-89.7011 314,-99.7012 317.5001,-89.7012 310.5001,-89.7011"/>
</g>
<!-- n15 -->
<g id="node16" class="node">
<title>n15</title>
<path fill="#ffffff" stroke="#1b9e77" stroke-width="2" d="M1045,-162C1045,-162 873,-162 873,-162 867,-162 861,-156 861,-150 861,-150 861,-114 861,-114 861,-108 867,-102 873,-102 873,-102 1045,-102 1045,-102 1051,-102 1057,-108 1057,-114 1057,-114 1057,-150 1057,-150 1057,-156 1051,-162 1045,-162"/>
<text text-anchor="start" x="871.746" y="-147" font-family="arial" font-size="10.00" fill="#000000">Many people are unconvinced that they</text>
<text text-anchor="start" x="888.1405" y="-135" font-family="arial" font-size="10.00" fill="#000000"> would have a different duty to a</text>
<text text-anchor="start" x="880.3675" y="-123" font-family="arial" font-size="10.00" fill="#000000"> familiar than to a stranger and thus</text>
<text text-anchor="start" x="877.3175" y="-111" font-family="arial" font-size="10.00" fill="#000000"> the difference is not morally relevant</text>
</g>
<!-- n36 -->
<g id="node37" class="node">
<title>n36</title>
<path fill="#1b9e77" stroke="#000000" d="M1046,-310C1046,-310 874,-310 874,-310 868,-310 862,-304 862,-298 862,-298 862,-258 862,-258 862,-252 868,-246 874,-246 874,-246 1046,-246 1046,-246 1052,-246 1058,-252 1058,-258 1058,-258 1058,-298 1058,-298 1058,-304 1052,-310 1046,-310"/>
<text text-anchor="start" x="892.4835" y="-296" font-family="arial" font-weight="bold" font-size="10.00" fill="#000000">Stranger vs offspring objection</text>
<text text-anchor="start" x="899.158" y="-279" font-family="arial" font-size="10.00" fill="#000000">The violinist is a stranger, a</text>
<text text-anchor="start" x="877.214" y="-267" font-family="arial" font-size="10.00" fill="#000000"> situation with a familiar would draw a</text>
<text text-anchor="start" x="915.544" y="-255" font-family="arial" font-size="10.00" fill="#000000"> different conclusion</text>
</g>
<!-- n15&#45;&gt;n36 -->
<g id="edge20" class="edge">
<title>n15&#45;&gt;n36</title>
<path fill="none" stroke="#ff0000" d="M959.2072,-162.2513C959.3527,-183.4964 959.5493,-212.2 959.7103,-235.708"/>
<polygon fill="#ff0000" stroke="#ff0000" points="956.2107,-235.7862 959.7792,-245.762 963.2105,-235.7382 956.2107,-235.7862"/>
</g>
<!-- n16 -->
<g id="node17" class="node">
<title>n16</title>
<path fill="#ffffff" stroke="#1b9e77" stroke-width="2" d="M1261,-162C1261,-162 1087,-162 1087,-162 1081,-162 1075,-156 1075,-150 1075,-150 1075,-114 1075,-114 1075,-108 1081,-102 1087,-102 1087,-102 1261,-102 1261,-102 1267,-102 1273,-108 1273,-114 1273,-114 1273,-150 1273,-150 1273,-156 1267,-162 1261,-162"/>
<text text-anchor="start" x="1084.5335" y="-147" font-family="arial" font-size="10.00" fill="#000000">There is no moral difference between an</text>
<text text-anchor="start" x="1096.4715" y="-135" font-family="arial" font-size="10.00" fill="#000000"> action with forseen but unintended</text>
<text text-anchor="start" x="1090.0755" y="-123" font-family="arial" font-size="10.00" fill="#000000"> consequences and one with intended</text>
<text text-anchor="start" x="1097.0375" y="-111" font-family="arial" font-size="10.00" fill="#000000"> consequences (consequentialism)</text>
</g>
<!-- n37 -->
<g id="node38" class="node">
<title>n37</title>
<path fill="#1b9e77" stroke="#000000" d="M1260,-326C1260,-326 1088,-326 1088,-326 1082,-326 1076,-320 1076,-314 1076,-314 1076,-242 1076,-242 1076,-236 1082,-230 1088,-230 1088,-230 1260,-230 1260,-230 1266,-230 1272,-236 1272,-242 1272,-242 1272,-314 1272,-314 1272,-320 1266,-326 1260,-326"/>
<text text-anchor="start" x="1103.9865" y="-312" font-family="arial" font-weight="bold" font-size="10.00" fill="#000000">Killing vs letting die or intending</text>
<text text-anchor="start" x="1111.7615" y="-302" font-family="arial" font-weight="bold" font-size="10.00" fill="#000000"> versus foreseeing objection</text>
<text text-anchor="start" x="1092.877" y="-287" font-family="arial" font-size="10.00" fill="#000000">Abortion intentionally kills an embryo</text>
<text text-anchor="start" x="1100.0965" y="-275" font-family="arial" font-size="10.00" fill="#000000"> while unplugging the violinist lets</text>
<text text-anchor="start" x="1113.1485" y="-263" font-family="arial" font-size="10.00" fill="#000000"> him die as an unintentional</text>
<text text-anchor="start" x="1087.0305" y="-251" font-family="arial" font-size="10.00" fill="#000000"> consequence of your escape (principle</text>
<text text-anchor="start" x="1136.7635" y="-239" font-family="arial" font-size="10.00" fill="#000000"> of double effect)</text>
</g>
<!-- n16&#45;&gt;n37 -->
<g id="edge22" class="edge">
<title>n16&#45;&gt;n37</title>
<path fill="none" stroke="#ff0000" d="M1174,-162.2513C1174,-178.8948 1174,-200.1156 1174,-219.83"/>
<polygon fill="#ff0000" stroke="#ff0000" points="1170.5001,-219.9698 1174,-229.9698 1177.5001,-219.9698 1170.5001,-219.9698"/>
</g>
<!-- n17 -->
<g id="node18" class="node">
<title>n17</title>
<path fill="#ffffff" stroke="#1b9e77" stroke-width="2" d="M617.5,-356C617.5,-356 442.5,-356 442.5,-356 436.5,-356 430.5,-350 430.5,-344 430.5,-344 430.5,-212 430.5,-212 430.5,-206 436.5,-200 442.5,-200 442.5,-200 617.5,-200 617.5,-200 623.5,-200 629.5,-206 629.5,-212 629.5,-212 629.5,-344 629.5,-344 629.5,-350 623.5,-356 617.5,-356"/>
<text text-anchor="start" x="447.1515" y="-341" font-family="arial" font-size="10.00" fill="#000000">Consider the scenario of a family who</text>
<text text-anchor="start" x="454.3675" y="-329" font-family="arial" font-size="10.00" fill="#000000"> was found to be liable for frostbite</text>
<text text-anchor="start" x="447.142" y="-317" font-family="arial" font-size="10.00" fill="#000000"> finger loss suffered by a dinner guest</text>
<text text-anchor="start" x="452.4255" y="-305" font-family="arial" font-size="10.00" fill="#000000"> whom they refused to allow to stay</text>
<text text-anchor="start" x="451.036" y="-293" font-family="arial" font-size="10.00" fill="#000000"> overnight, although it was very cold</text>
<text text-anchor="start" x="444.0765" y="-281" font-family="arial" font-size="10.00" fill="#000000"> outside and the guest showed signs of</text>
<text text-anchor="start" x="453.811" y="-269" font-family="arial" font-size="10.00" fill="#000000"> being sick. It is argued that just as</text>
<text text-anchor="start" x="449.3725" y="-257" font-family="arial" font-size="10.00" fill="#000000"> it would not be permissible to refuse</text>
<text text-anchor="start" x="440.757" y="-245" font-family="arial" font-size="10.00" fill="#000000"> temporary accommodation for the guest</text>
<text text-anchor="start" x="446.8775" y="-233" font-family="arial" font-size="10.00" fill="#000000"> to protect them from physical harm, it</text>
<text text-anchor="start" x="453.261" y="-221" font-family="arial" font-size="10.00" fill="#000000"> would not be permissible to refuse</text>
<text text-anchor="start" x="446.591" y="-209" font-family="arial" font-size="10.00" fill="#000000"> temporary accommodation of a fetus.</text>
</g>
<!-- n17&#45;&gt;n33 -->
<g id="edge25" class="edge">
<title>n17&#45;&gt;n33</title>
<path fill="none" stroke="#ff0000" d="M629.7795,-351.5729C632.8476,-353.1316 635.9244,-354.6123 639,-356 706.5444,-386.4754 787.9454,-405.0581 851.8742,-415.9799"/>
<polygon fill="#ff0000" stroke="#ff0000" points="851.5396,-419.4724 861.9795,-417.6676 852.6927,-412.568 851.5396,-419.4724"/>
</g>
<!-- n18 -->
<g id="node19" class="node">
<title>n18</title>
<path fill="#ffffff" stroke="#1b9e77" stroke-width="2" d="M616,-162C616,-162 444,-162 444,-162 438,-162 432,-156 432,-150 432,-150 432,-114 432,-114 432,-108 438,-102 444,-102 444,-102 616,-102 616,-102 622,-102 628,-108 628,-114 628,-114 628,-150 628,-150 628,-156 622,-162 616,-162"/>
<text text-anchor="start" x="446.086" y="-147" font-family="arial" font-size="10.00" fill="#000000">The magnitude of the accommodation</text>
<text text-anchor="start" x="447.4765" y="-135" font-family="arial" font-size="10.00" fill="#000000"> provided to the dinner guest is vastly</text>
<text text-anchor="start" x="455.2475" y="-123" font-family="arial" font-size="10.00" fill="#000000"> different than that provided to the</text>
<text text-anchor="start" x="517.7725" y="-111" font-family="arial" font-size="10.00" fill="#000000"> fetus</text>
</g>
<!-- n18&#45;&gt;n17 -->
<g id="edge24" class="edge">
<title>n18&#45;&gt;n17</title>
<path fill="none" stroke="#ff0000" d="M530,-162.2513C530,-170.496 530,-179.864 530,-189.6157"/>
<polygon fill="#ff0000" stroke="#ff0000" points="526.5001,-189.8859 530,-199.886 533.5001,-189.886 526.5001,-189.8859"/>
</g>
<!-- n19 -->
<g id="node20" class="node">
<title>n19</title>
<path fill="#ffffff" stroke="#1b9e77" stroke-width="2" d="M832,-326C832,-326 660,-326 660,-326 654,-326 648,-320 648,-314 648,-314 648,-242 648,-242 648,-236 654,-230 660,-230 660,-230 832,-230 832,-230 838,-230 844,-236 844,-242 844,-242 844,-314 844,-314 844,-320 838,-326 832,-326"/>
<text text-anchor="start" x="663.4775" y="-311" font-family="arial" font-size="10.00" fill="#000000">There is a difference between natural</text>
<text text-anchor="start" x="671.821" y="-299" font-family="arial" font-size="10.00" fill="#000000"> and artificial preservation. One is</text>
<text text-anchor="start" x="684.314" y="-287" font-family="arial" font-size="10.00" fill="#000000"> obligated to provide natural</text>
<text text-anchor="start" x="668.4765" y="-275" font-family="arial" font-size="10.00" fill="#000000"> preservation like gestation, but not</text>
<text text-anchor="start" x="689.0445" y="-263" font-family="arial" font-size="10.00" fill="#000000"> obligated to offer artificial</text>
<text text-anchor="start" x="671.54" y="-251" font-family="arial" font-size="10.00" fill="#000000"> preservation like persistent blood</text>
<text text-anchor="start" x="717.381" y="-239" font-family="arial" font-size="10.00" fill="#000000"> transfusion. </text>
</g>
<!-- n19&#45;&gt;n33 -->
<g id="edge26" class="edge">
<title>n19&#45;&gt;n33</title>
<path fill="none" stroke="#ff0000" d="M811.4546,-326.1089C825.1369,-336.0544 839.5049,-346.4169 853,-356 876.9543,-373.0103 904.1911,-391.8398 925.1899,-406.2478"/>
<polygon fill="#ff0000" stroke="#ff0000" points="923.2618,-409.1695 933.4893,-411.9351 927.2187,-403.3951 923.2618,-409.1695"/>
</g>
<!-- n20 -->
<g id="node21" class="node">
<title>n20</title>
<path fill="#ffffff" stroke="#1b9e77" stroke-width="2" d="M2330,-572C2330,-572 2158,-572 2158,-572 2152,-572 2146,-566 2146,-560 2146,-560 2146,-548 2146,-548 2146,-542 2152,-536 2158,-536 2158,-536 2330,-536 2330,-536 2336,-536 2342,-542 2342,-548 2342,-548 2342,-560 2342,-560 2342,-566 2336,-572 2330,-572"/>
<text text-anchor="start" x="2168.9845" y="-557" font-family="arial" font-size="10.00" fill="#000000">Arguments against virtue ethics in</text>
<text text-anchor="start" x="2225.939" y="-545" font-family="arial" font-size="10.00" fill="#000000"> general</text>
</g>
<!-- n38 -->
<g id="node39" class="node">
<title>n38</title>
<path fill="#1b9e77" stroke="#000000" d="M2223,-684C2223,-684 2051,-684 2051,-684 2045,-684 2039,-678 2039,-672 2039,-672 2039,-660 2039,-660 2039,-654 2045,-648 2051,-648 2051,-648 2223,-648 2223,-648 2229,-648 2235,-654 2235,-660 2235,-660 2235,-672 2235,-672 2235,-678 2229,-684 2223,-684"/>
<text text-anchor="start" x="2075.882" y="-664" font-family="arial" font-weight="bold" font-size="10.00" fill="#000000">Argument from virtue ethics</text>
</g>
<!-- n20&#45;&gt;n38 -->
<g id="edge29" class="edge">
<title>n20&#45;&gt;n38</title>
<path fill="none" stroke="#ff0000" d="M2226.3311,-572.4945C2208.5684,-591.0873 2181.0531,-619.8884 2161.2533,-640.6134"/>
<polygon fill="#ff0000" stroke="#ff0000" points="2158.7172,-638.2012 2154.3401,-647.8496 2163.7787,-643.0367 2158.7172,-638.2012"/>
</g>
<!-- n21 -->
<g id="node22" class="node">
<title>n21</title>
<path fill="#ffffff" stroke="#1b9e77" stroke-width="2" d="M621,-64C621,-64 449,-64 449,-64 443,-64 437,-58 437,-52 437,-52 437,-12 437,-12 437,-6 443,0 449,0 449,0 621,0 621,0 627,0 633,-6 633,-12 633,-12 633,-52 633,-52 633,-58 627,-64 621,-64"/>
<text text-anchor="start" x="492.2235" y="-50" font-family="arial" font-weight="bold" font-size="10.00" fill="#000000">Factor of moral risk</text>
<text text-anchor="start" x="452.207" y="-33" font-family="arial" font-size="10.00" fill="#000000">If a person is considering the morality</text>
<text text-anchor="start" x="451.3575" y="-21" font-family="arial" font-size="10.00" fill="#000000"> of having an abortion, they must be a</text>
<text text-anchor="start" x="507.221" y="-9" font-family="arial" font-size="10.00" fill="#000000"> moral actor.</text>
</g>
<!-- n22&#45;&gt;n0 -->
<g id="edge1" class="edge">
<title>n22&#45;&gt;n0</title>
<path fill="none" stroke="#00ff00" d="M1271.468,-684.2337C1279.0213,-694.4596 1288.6922,-707.5525 1297.6116,-719.628"/>
<polygon fill="#00ff00" stroke="#00ff00" points="1294.8746,-721.8135 1303.6313,-727.7777 1300.5052,-717.6545 1294.8746,-721.8135"/>
</g>
<!-- n23&#45;&gt;n0 -->
<g id="edge4" class="edge">
<title>n23&#45;&gt;n0</title>
<path fill="none" stroke="#ff0000" d="M1389.9178,-448.184C1393.8267,-491.8218 1399.8506,-605.2872 1368,-692 1364.4575,-701.6444 1358.9554,-711.1139 1352.9988,-719.6357"/>
<polygon fill="#ff0000" stroke="#ff0000" points="1350.0824,-717.693 1346.9466,-727.8131 1355.7089,-721.8573 1350.0824,-717.693"/>
</g>
<!-- n23&#45;&gt;n3 -->
<g id="edge3" class="edge">
<title>n23&#45;&gt;n3</title>
<path fill="none" stroke="#ff0000" d="M1369.3877,-448.0307C1347.3949,-469.3362 1310.6697,-504.9137 1285.9064,-528.9032"/>
<polygon fill="#ff0000" stroke="#ff0000" points="1283.3819,-526.4757 1278.6348,-535.9476 1288.2525,-531.5034 1283.3819,-526.4757"/>
</g>
<!-- n24 -->
<g id="node25" class="node">
<title>n24</title>
<path fill="#1b9e77" stroke="#000000" d="M1475,-150C1475,-150 1303,-150 1303,-150 1297,-150 1291,-144 1291,-138 1291,-138 1291,-126 1291,-126 1291,-120 1297,-114 1303,-114 1303,-114 1475,-114 1475,-114 1481,-114 1487,-120 1487,-126 1487,-126 1487,-138 1487,-138 1487,-144 1481,-150 1475,-150"/>
<text text-anchor="start" x="1304.8065" y="-134" font-family="arial" font-weight="bold" font-size="10.00" fill="#000000">Comatose adults also do not meet the</text>
<text text-anchor="start" x="1337.601" y="-124" font-family="arial" font-weight="bold" font-size="10.00" fill="#000000"> criteria for personhood</text>
</g>
<!-- n24&#45;&gt;n4 -->
<g id="edge2" class="edge">
<title>n24&#45;&gt;n4</title>
<path fill="none" stroke="#ff0000" d="M1388.8754,-150.1958C1388.7047,-175.1132 1388.3965,-220.1062 1388.1951,-249.5123"/>
<polygon fill="#ff0000" stroke="#ff0000" points="1384.6949,-249.5511 1388.1262,-259.5749 1391.6947,-249.5991 1384.6949,-249.5511"/>
</g>
<!-- n25&#45;&gt;n23 -->
<g id="edge5" class="edge">
<title>n25&#45;&gt;n23</title>
<path fill="none" stroke="#ff0000" d="M1615.6684,-296.2371C1593.3616,-312.642 1559.1608,-337.0114 1528,-356 1497.5217,-374.5727 1461.9514,-393.339 1434.2919,-407.3262"/>
<polygon fill="#ff0000" stroke="#ff0000" points="1432.5967,-404.261 1425.2338,-411.8793 1435.7404,-410.5153 1432.5967,-404.261"/>
</g>
<!-- n26&#45;&gt;n0 -->
<g id="edge30" class="edge">
<title>n26&#45;&gt;n0</title>
<path fill="none" stroke="#00ff00" d="M1068.3302,-690.5129C1113.9445,-701.8842 1168.2879,-715.4316 1215.0369,-727.0857"/>
<polygon fill="#00ff00" stroke="#00ff00" points="1214.3418,-730.5195 1224.8915,-729.5423 1216.0351,-723.7273 1214.3418,-730.5195"/>
</g>
<!-- n27 -->
<g id="node28" class="node">
<title>n27</title>
<path fill="#1b9e77" stroke="#000000" d="M1688,-468C1688,-468 1516,-468 1516,-468 1510,-468 1504,-462 1504,-456 1504,-456 1504,-404 1504,-404 1504,-398 1510,-392 1516,-392 1516,-392 1688,-392 1688,-392 1694,-392 1700,-398 1700,-404 1700,-404 1700,-456 1700,-456 1700,-462 1694,-468 1688,-468"/>
<text text-anchor="start" x="1562.823" y="-454" font-family="arial" font-weight="bold" font-size="10.00" fill="#000000">Equality objection</text>
<text text-anchor="start" x="1525.031" y="-437" font-family="arial" font-size="10.00" fill="#000000">Not all futures have an equal value</text>
<text text-anchor="start" x="1517.2515" y="-425" font-family="arial" font-size="10.00" fill="#000000"> (eg. a young adult compared to a sick</text>
<text text-anchor="start" x="1523.0965" y="-413" font-family="arial" font-size="10.00" fill="#000000"> elderly person), yet all people must</text>
<text text-anchor="start" x="1543.369" y="-401" font-family="arial" font-size="10.00" fill="#000000"> have an equal right to life.</text>
</g>
<!-- n27&#45;&gt;n10 -->
<g id="edge10" class="edge">
<title>n27&#45;&gt;n10</title>
<path fill="none" stroke="#ff0000" d="M1602,-468.2159C1602,-480.6812 1602,-494.6584 1602,-507.6538"/>
<polygon fill="#ff0000" stroke="#ff0000" points="1598.5001,-507.8176 1602,-517.8177 1605.5001,-507.8177 1598.5001,-507.8176"/>
</g>
<!-- n28&#45;&gt;n0 -->
<g id="edge31" class="edge">
<title>n28&#45;&gt;n0</title>
<path fill="none" stroke="#00ff00" d="M1610.5972,-688.4338C1555.812,-700.9237 1487.5162,-716.4937 1431.2269,-729.3265"/>
<polygon fill="#00ff00" stroke="#00ff00" points="1430.195,-725.9719 1421.2232,-731.6072 1431.751,-732.7968 1430.195,-725.9719"/>
</g>
<!-- n29 -->
<g id="node30" class="node">
<title>n29</title>
<path fill="#1b9e77" stroke="#000000" d="M1902,-598C1902,-598 1730,-598 1730,-598 1724,-598 1718,-592 1718,-586 1718,-586 1718,-522 1718,-522 1718,-516 1724,-510 1730,-510 1730,-510 1902,-510 1902,-510 1908,-510 1914,-516 1914,-522 1914,-522 1914,-586 1914,-586 1914,-592 1908,-598 1902,-598"/>
<text text-anchor="start" x="1778.488" y="-584" font-family="arial" font-weight="bold" font-size="10.00" fill="#000000">Identity objection</text>
<text text-anchor="start" x="1732.092" y="-567" font-family="arial" font-size="10.00" fill="#000000">The entity which has a future like ours</text>
<text text-anchor="start" x="1735.4185" y="-555" font-family="arial" font-size="10.00" fill="#000000"> is not a biological one, but rather an</text>
<text text-anchor="start" x="1734.871" y="-543" font-family="arial" font-size="10.00" fill="#000000"> embodied mind which is not present</text>
<text text-anchor="start" x="1758.4895" y="-531" font-family="arial" font-size="10.00" fill="#000000"> until later in the biological</text>
<text text-anchor="start" x="1785.9905" y="-519" font-family="arial" font-size="10.00" fill="#000000"> development</text>
</g>
<!-- n29&#45;&gt;n28 -->
<g id="edge11" class="edge">
<title>n29&#45;&gt;n28</title>
<path fill="none" stroke="#ff0000" d="M1773.7108,-598.2654C1762.8995,-609.5819 1751.4487,-621.5677 1741.2334,-632.2603"/>
<polygon fill="#ff0000" stroke="#ff0000" points="1738.4174,-630.1412 1734.0403,-639.7896 1743.4789,-634.9767 1738.4174,-630.1412"/>
</g>
<!-- n30&#45;&gt;n28 -->
<g id="edge13" class="edge">
<title>n30&#45;&gt;n28</title>
<path fill="none" stroke="#ff0000" d="M1965.6187,-586.0474C1951.732,-592.4043 1937.011,-598.7331 1923,-604 1889.1398,-616.7284 1851.4602,-628.4311 1817.2704,-638.1589"/>
<polygon fill="#ff0000" stroke="#ff0000" points="1815.9305,-634.9001 1807.2545,-640.981 1817.829,-641.6377 1815.9305,-634.9001"/>
</g>
<!-- n31&#45;&gt;n10 -->
<g id="edge15" class="edge">
<title>n31&#45;&gt;n10</title>
<path fill="none" stroke="#ff0000" d="M1760.6114,-462.0943C1733.9001,-477.5719 1701.5461,-496.3191 1673.0437,-512.8345"/>
<polygon fill="#ff0000" stroke="#ff0000" points="1671.23,-509.8402 1664.3324,-517.8822 1674.7396,-515.8969 1671.23,-509.8402"/>
</g>
<!-- n32 -->
<g id="node33" class="node">
<title>n32</title>
<path fill="#1b9e77" stroke="#000000" d="M835,-52C835,-52 663,-52 663,-52 657,-52 651,-46 651,-40 651,-40 651,-24 651,-24 651,-18 657,-12 663,-12 663,-12 835,-12 835,-12 841,-12 847,-18 847,-24 847,-24 847,-40 847,-40 847,-46 841,-52 835,-52"/>
<text text-anchor="start" x="701.489" y="-38" font-family="arial" font-weight="bold" font-size="10.00" fill="#000000">Body rights argument</text>
<text text-anchor="start" x="674.26" y="-21" font-family="arial" font-size="10.00" fill="#000000">Consider this thought experiment:</text>
</g>
<!-- n33&#45;&gt;n0 -->
<g id="edge28" class="edge">
<title>n33&#45;&gt;n0</title>
<path fill="none" stroke="#ff0000" d="M1001.9718,-448.0686C1026.7597,-460.6028 1057.0867,-479.4573 1077,-504 1133.1763,-573.2362 1083.398,-629.5163 1147,-692 1165.75,-710.4203 1190.2936,-723.3923 1215.0751,-732.5192"/>
<polygon fill="#ff0000" stroke="#ff0000" points="1213.978,-735.8433 1224.5728,-735.8323 1216.2836,-729.2339 1213.978,-735.8433"/>
</g>
<!-- n33&#45;&gt;n1 -->
<g id="edge27" class="edge">
<title>n33&#45;&gt;n1</title>
<path fill="none" stroke="#ff0000" d="M961.4541,-448.0307C962.5556,-461.6893 964.1301,-481.2135 965.6282,-499.7899"/>
<polygon fill="#ff0000" stroke="#ff0000" points="962.1565,-500.283 966.4491,-509.9693 969.1339,-499.7202 962.1565,-500.283"/>
</g>
<!-- n34&#45;&gt;n13 -->
<g id="edge17" class="edge">
<title>n34&#45;&gt;n13</title>
<path fill="none" stroke="#00ff00" d="M314,-164.0403C314,-189.6323 314,-225.1545 314,-249.7058"/>
<polygon fill="#00ff00" stroke="#00ff00" points="310.5001,-249.8168 314,-259.8168 317.5001,-249.8169 310.5001,-249.8168"/>
</g>
<!-- n35 -->
<g id="node36" class="node">
<title>n35</title>
<path fill="#1b9e77" stroke="#000000" d="M184,-164C184,-164 12,-164 12,-164 6,-164 0,-158 0,-152 0,-152 0,-112 0,-112 0,-106 6,-100 12,-100 12,-100 184,-100 184,-100 190,-100 196,-106 196,-112 196,-112 196,-152 196,-152 196,-158 190,-164 184,-164"/>
<text text-anchor="start" x="45.77" y="-150" font-family="arial" font-weight="bold" font-size="10.00" fill="#000000">Responsibility objection</text>
<text text-anchor="start" x="16.3055" y="-133" font-family="arial" font-size="10.00" fill="#000000">The woman has a duty to sustain the</text>
<text text-anchor="start" x="22.974" y="-121" font-family="arial" font-size="10.00" fill="#000000"> child because she is the one who</text>
<text text-anchor="start" x="19.9115" y="-109" font-family="arial" font-size="10.00" fill="#000000"> caused it to be in need of her body</text>
</g>
<!-- n35&#45;&gt;n13 -->
<g id="edge18" class="edge">
<title>n35&#45;&gt;n13</title>
<path fill="none" stroke="#00ff00" d="M151.1606,-164.1003C169.0772,-175.1995 189.069,-187.8942 207,-200 232.6205,-217.2973 260.8487,-237.9446 281.8758,-253.6498"/>
<polygon fill="#00ff00" stroke="#00ff00" points="280.0304,-256.6406 290.1312,-259.8381 284.229,-251.0396 280.0304,-256.6406"/>
</g>
<!-- n36&#45;&gt;n33 -->
<g id="edge21" class="edge">
<title>n36&#45;&gt;n33</title>
<path fill="none" stroke="#ff0000" d="M960,-310.2353C960,-337.2284 960,-375.395 960,-401.336"/>
<polygon fill="#ff0000" stroke="#ff0000" points="956.5001,-401.6369 960,-411.6369 963.5001,-401.6369 956.5001,-401.6369"/>
</g>
<!-- n37&#45;&gt;n33 -->
<g id="edge23" class="edge">
<title>n37&#45;&gt;n33</title>
<path fill="none" stroke="#ff0000" d="M1108.5454,-326.1089C1094.8631,-336.0544 1080.4951,-346.4169 1067,-356 1043.0457,-373.0103 1015.8089,-391.8398 994.8101,-406.2478"/>
<polygon fill="#ff0000" stroke="#ff0000" points="992.7813,-403.3951 986.5107,-411.9351 996.7382,-409.1695 992.7813,-403.3951"/>
</g>
<!-- n38&#45;&gt;n0 -->
<g id="edge32" class="edge">
<title>n38&#45;&gt;n0</title>
<path fill="none" stroke="#00ff00" d="M2038.8126,-676.6149C1885.616,-693.1767 1590.8116,-725.0474 1431.5121,-742.269"/>
<polygon fill="#00ff00" stroke="#00ff00" points="1430.7841,-738.8272 1421.2183,-743.3818 1431.5366,-745.7866 1430.7841,-738.8272"/>
</g>
</g>
</svg>
